HIERARCHY
ROOT Hips
{
	OFFSET -3.958830 18.904000 13.208200
	CHANNELS 6 Xposition Yposition Zposition Zrotation Yrotation Xrotation 
	JOINT LHipJoint
	{
		OFFSET 0.000000 0.000000 0.000000
		CHANNELS 3 Zrotation Yrotation Xrotation
		JOINT LeftUpLeg
		{
			OFFSET 1.800000 -1.400000 0.085000
			CHANNELS 3 Zrotation Yrotation Xrotation
			JOINT LeftLeg
			{
				OFFSET 2.215000 -6.000000 0.000000
				CHANNELS 3 Zrotation Yrotation Xrotation
				JOINT LeftFoot
				{
					OFFSET 2.500000 -6.900000 0.000000
					CHANNELS 3 Zrotation Yrotation Xrotation
					JOINT LeftToeBase
					{
						OFFSET 0.200000 -0.500000 1.950000
						CHANNELS 3 Zrotation Yrotation Xrotation
						End Site
						{
							OFFSET 0.000000 0.000000 0.000000
						}
					}
				}
			}
		}
	}
	JOINT RHipJoint
	{
		OFFSET 0.000000 0.000000 0.000000
		CHANNELS 3 Zrotation Yrotation Xrotation
		JOINT RightUpLeg
		{
			OFFSET -1.800000 -1.400000 0.085000
			CHANNELS 3 Zrotation Yrotation Xrotation
			JOINT RightLeg
			{
				OFFSET -2.215000 -6.000000 0.000000
				CHANNELS 3 Zrotation Yrotation Xrotation
				JOINT RightFoot
				{
					OFFSET -2.500000 -6.900000 0.000000
					CHANNELS 3 Zrotation Yrotation Xrotation
					JOINT RightToeBase
					{
						OFFSET -0.200000 -0.500000 1.950000
						CHANNELS 3 Zrotation Yrotation Xrotation
						End Site
						{
							OFFSET 0.000000 0.000000 0.000000
						}
					}
				}
			}
		}
	}
	JOINT LowerBack
	{
		OFFSET 0.000000 0.000000 0.000000
		CHANNELS 3 Zrotation Yrotation Xrotation
		JOINT Spine
		{
			OFFSET -0.087000 1.940000 -0.288900
			CHANNELS 3 Zrotation Yrotation Xrotation
			JOINT Spine1
			{
				OFFSET 0.000000 1.950000 0.060000
				CHANNELS 3 Zrotation Yrotation Xrotation
				JOINT Neck
				{
					OFFSET 0.000000 0.000000 0.000000
					CHANNELS 3 Zrotation Yrotation Xrotation
					JOINT Neck1
					{
						OFFSET 0.000000 1.600000 0.340000
						CHANNELS 3 Zrotation Yrotation Xrotation
						JOINT Head
						{
							OFFSET 0.000000 1.667000 -0.240000
							CHANNELS 3 Zrotation Yrotation Xrotation
							End Site
							{
								OFFSET 0.000000 0.000000 0.000000
							}
						}
					}
				}
				JOINT LeftShoulder
				{
					OFFSET 0.000000 0.000000 0.000000
					CHANNELS 3 Zrotation Yrotation Xrotation
					JOINT LeftArm
					{
						OFFSET 2.700000 1.550000 -0.730000
						CHANNELS 3 Zrotation Yrotation Xrotation
						JOINT LeftForeArm
						{
							OFFSET 5.450000 0.000000 0.000000
							CHANNELS 3 Zrotation Yrotation Xrotation
							JOINT LeftHand
							{
								OFFSET 3.450000 0.000000 0.000000
								CHANNELS 3 Zrotation Yrotation Xrotation
								JOINT LeftHandIndex1
								{
									OFFSET 0.750000 0.000000 0.000000
									CHANNELS 3 Zrotation Yrotation Xrotation
									End Site
									{
										OFFSET 0.000000 0.000000 0.000000
									}
								}
							}
						}
					}
				}
				JOINT RightShoulder
				{
					OFFSET 0.000000 0.000000 0.000000
					CHANNELS 3 Zrotation Yrotation Xrotation
					JOINT RightArm
					{
						OFFSET -2.700000 1.550000 -0.730000
						CHANNELS 3 Zrotation Yrotation Xrotation
						JOINT RightForeArm
						{
							OFFSET -5.450000 0.000000 0.000000
							CHANNELS 3 Zrotation Yrotation Xrotation
							JOINT RightHand
							{
								OFFSET -3.450000 0.000000 0.000000
								CHANNELS 3 Zrotation Yrotation Xrotation
								JOINT RightHandIndex1
								{
									OFFSET -0.750000 0.000000 0.000000
									CHANNELS 3 Zrotation Yrotation Xrotation
									End Site
									{
										OFFSET 0.000000 0.000000 0.000000
									}
								}
							}
						}
					}
				}
			}
		}
	}
}
MOTION
Frames: 10
Frame Time: 0.016667
-1.608270 16.174900 -2.716170 2.725170 -16.061103 -3.698957 -15.751998 10.349894 5.592855 35.198369 1.218881 -31.176600 -30.248298 28.547858 43.598552 1.039757 12.585824 -0.186177 0.762180 0.790390 0.601760 18.497506 -6.484137 4.553855 -41.148386 7.538922 -40.775900 30.300102 -27.515035 48.948234 -2.214969 -10.650281 0.442142 0.325390 -0.513780 0.166010 -3.528797 -3.879476 -9.855305 35.125850 -14.229807 36.940979 -7.161520 -3.353599 9.459460 9.032031 -6.754457 -18.970155 -29.058015 21.862674 60.092448 -9.586880 3.392840 -31.922120 -25.678232 -29.062393 10.483544 -49.607495 -2.762536 -10.123900 -9.364948 -28.192789 -1.712579 -2.845249 2.794861 1.008600 -0.564170 0.782160 0.053470 8.327391 34.933080 10.060673 40.902038 13.502370 -25.085171 -54.157519 48.446790 -29.310745 1.770899 -0.659182 0.070920 0.378080 -0.088410 -0.182260 
-1.557620 16.204600 -2.694170 3.251394 -14.709323 -4.493558 -15.686390 10.456480 5.447097 33.801191 0.456887 -30.363158 -30.119210 27.959857 43.283642 1.068190 12.491918 -0.122752 0.716730 0.760730 0.558620 18.521210 -6.720009 4.445472 -41.148343 6.931300 -39.622611 28.432872 -27.100780 49.833108 -2.144171 -10.669408 0.450894 0.313020 -0.436920 0.156350 -3.591806 -3.765626 -9.739829 35.572984 -13.014358 34.970148 -4.731374 -3.697253 11.121776 7.649241 -7.571853 -18.935592 -29.641332 20.126748 56.654100 -8.579400 3.573250 -29.631350 -20.892285 -29.336892 10.749288 -51.020595 -5.495771 -7.511276 -5.655342 -23.639798 -1.979664 -2.968798 2.752532 0.931730 -0.500370 0.722880 0.059310 6.506877 35.313289 10.767281 41.815519 13.453229 -23.039035 -40.406270 45.106771 -20.442096 1.818509 -0.872036 0.063260 0.387480 -0.076130 -0.158080 
-1.513050 16.249880 -2.670660 3.770707 -13.413357 -5.120718 -15.591398 10.499989 5.298656 32.600177 -0.055056 -29.359980 -30.174054 27.304613 42.430915 1.030462 12.427733 -0.047005 0.627330 0.654310 0.459050 18.575634 -7.032602 4.315417 -40.795583 6.503159 -38.658852 26.021883 -26.279453 50.771771 -2.031992 -10.667017 0.464653 0.293910 -0.286230 0.159080 -3.749870 -3.418728 -9.605604 36.047686 -11.562140 32.608320 -2.077174 -3.877787 13.137813 5.889989 -8.646633 -18.745784 -30.021877 17.585258 52.329910 -7.599360 2.992350 -26.633630 -16.695545 -29.386617 10.814149 -51.380573 -8.433404 -3.707806 -1.481404 -16.730819 -1.792661 -3.145969 2.716436 0.873400 -0.396190 0.614570 0.079590 6.021102 35.651184 11.455633 41.583339 13.219604 -21.061442 -32.361652 41.704425 -15.521817 1.831308 -1.003491 -0.003140 0.425920 -0.017880 -0.137970 
-1.468610 16.328870 -2.648750 3.986861 -12.180550 -5.975712 -15.466605 10.600450 5.145321 31.374199 -0.645728 -27.945863 -30.041718 26.271587 41.285796 0.952531 12.225292 0.018353 0.564730 0.599740 0.406390 18.632701 -7.518514 4.043815 -39.230712 6.198487 -36.951448 22.503787 -24.466990 51.417715 -1.882374 -10.407621 0.520473 0.285350 -0.211290 0.168330 -3.951032 -2.933219 -9.402291 36.669177 -10.351083 30.447707 -0.502765 -3.886567 15.191769 4.442637 -8.965943 -18.466536 -29.018406 15.082831 49.659918 -7.514950 2.832500 -25.818080 -13.082190 -30.102793 10.847901 -50.869728 -12.259890 1.133581 3.626765 -5.729212 -0.888366 -3.340899 2.717968 0.832050 -0.328320 0.559900 0.060370 5.344132 35.947934 11.949834 43.175250 13.346631 -19.748732 -28.849243 38.706190 -13.336146 1.843094 -1.062570 -0.032450 0.444590 0.037720 -0.133310 
-1.410510 16.430570 -2.623320 4.125672 -10.473425 -7.115601 -15.337341 10.811683 4.966043 29.892580 -1.258871 -26.069391 -29.581475 24.987226 39.936627 0.886966 11.997558 0.156051 0.435590 0.437700 0.309980 18.665499 -8.106203 3.687479 -37.345338 5.662319 -34.381500 18.936464 -22.233369 51.166128 -1.671060 -9.993699 0.657398 0.226450 -0.060190 0.169470 -4.107115 -2.498969 -9.172923 36.891201 -9.370687 28.552702 0.952871 -3.984529 16.689657 3.075594 -8.951373 -18.482429 -26.379537 13.035474 47.243503 -7.239960 3.606890 -22.816470 -9.779846 -30.167739 11.498935 -49.005938 -12.472865 1.811450 4.375725 -4.809681 -0.814802 -3.474099 2.675979 0.789200 -0.219930 0.456340 0.071240 4.877538 35.735971 12.147961 44.362033 13.843948 -18.408130 -25.894940 36.380599 -11.650380 1.847608 -1.100620 -0.116530 0.481200 0.104060 -0.129060 
-1.330420 16.552650 -2.594470 3.944009 -8.867100 -8.224024 -15.217300 11.104330 4.761806 28.215686 -1.666382 -24.165844 -28.396452 23.462523 38.677989 0.828068 11.634706 0.322072 0.313810 0.306220 0.220700 18.672183 -8.733103 3.301392 -35.530445 5.041202 -31.229686 15.934541 -19.879987 49.627424 -1.433087 -9.416638 0.844884 0.166900 0.048300 0.165950 -4.220265 -2.109983 -8.916276 37.386702 -8.489053 26.926632 2.310402 -4.141849 17.849309 2.286896 -8.757247 -18.276203 -23.623294 11.060373 45.442808 -8.107040 4.159660 -19.803360 -6.948285 -29.294506 11.969669 -48.235169 -11.964831 1.435748 7.905861 -5.270550 -1.043344 -3.570029 2.672837 0.717730 -0.124840 0.367140 0.071310 3.721558 34.805034 11.975092 45.040702 14.473506 -17.018179 -22.431012 35.368986 -10.126045 1.859357 -1.125618 -0.164380 0.485220 0.152060 -0.115640 
-1.253030 16.705760 -2.544870 3.773218 -7.141052 -9.995844 -15.075994 11.522054 4.437480 26.270744 -2.106862 -20.739997 -26.701550 21.258270 36.667352 0.668057 11.035283 0.506210 0.254420 0.224750 0.221270 18.666601 -9.523812 2.797371 -33.410674 4.070692 -26.751459 12.545679 -17.155533 47.311056 -1.203275 -8.682626 1.033974 0.134060 0.062670 0.205170 -4.347940 -1.698316 -8.539454 38.172184 -7.803272 25.515514 3.529815 -4.690709 19.361430 1.086741 -8.063374 -17.637519 -20.840316 8.727568 43.876624 -10.620730 4.783620 -18.752720 -1.983584 -28.764820 12.293608 -42.009450 -13.829866 4.255753 -1.859104 -1.380293 -0.445689 -3.742263 2.579571 0.678420 -0.058530 0.328540 0.024980 1.122963 33.006284 11.143148 46.664924 15.979342 -15.198834 -19.483708 33.760892 -8.728345 1.877961 -1.159467 -0.173080 0.431300 0.190990 -0.143850 
-1.178360 16.850400 -2.513760 3.731165 -6.453668 -11.184027 -14.903418 11.640365 4.140919 24.740225 -1.962510 -17.662872 -25.932524 19.708722 34.212151 0.571930 10.505081 0.718605 0.205540 0.185690 0.168590 18.733663 -10.262911 2.474624 -31.892010 3.514781 -23.833886 9.776221 -14.754600 44.805958 -0.998131 -8.019638 1.259583 0.129790 0.143050 0.210700 -4.652720 -0.778054 -8.233029 39.001179 -6.786564 24.013562 4.178801 -4.398908 21.612173 -0.693407 -7.471378 -17.442439 -17.996214 6.681338 41.472012 -10.487040 4.830800 -17.365040 3.790553 -28.613065 12.745260 -37.041291 -14.416283 4.986119 -7.523687 -0.140907 -0.744071 -3.840162 2.495392 0.609200 0.020680 0.262130 0.031530 -0.971181 31.793015 10.528735 48.043114 17.873261 -12.835927 -17.473229 30.390470 -7.375309 1.901656 -1.216407 -0.192280 0.436690 0.216600 -0.128920 
-1.110380 16.978310 -2.461790 3.094515 -5.230362 -12.026982 -14.739409 11.688466 3.865599 23.824838 -1.685319 -15.038278 -24.540488 18.214597 32.157364 0.487145 9.988946 0.943021 0.136610 0.136230 0.111410 18.800651 -10.988905 2.198967 -30.213353 2.715046 -20.477006 7.853607 -12.882513 41.475124 -0.814297 -7.435861 1.491842 0.113210 0.235300 0.230810 -4.955253 0.274178 -7.976037 39.712921 -5.027880 21.995743 5.278795 -3.555779 23.156240 -2.314415 -5.543005 -16.602218 -12.397351 3.193644 38.692803 -12.024450 4.677250 -15.296650 8.546092 -27.545471 12.428264 -30.311805 -14.846548 4.652578 -13.701641 -1.655920 -1.183351 -3.929100 2.407624 0.501220 0.138600 0.187020 0.043080 -2.524799 29.116454 9.637955 50.029007 18.910656 -10.261057 -16.100045 26.668130 -6.208798 1.934353 -1.279721 -0.201710 0.428500 0.236070 -0.107900 
-1.030480 17.122180 -2.413580 1.824297 -4.682805 -12.410086 -14.670923 11.902779 3.761094 23.757975 -1.177581 -12.935746 -23.776851 16.872341 29.343217 0.387739 9.499349 1.136014 0.076540 0.049780 0.058830 18.776255 -11.398803 1.951442 -27.939050 2.205395 -17.238240 6.295172 -11.144820 37.717189 -0.676495 -6.717186 1.770252 0.064900 0.280930 0.220600 -5.000623 0.546025 -7.796255 40.438605 -4.191733 21.306591 6.705070 -3.273668 23.403843 -3.179613 -5.323802 -16.997310 -11.656024 2.533131 38.236769 -10.874650 4.121980 -15.041050 11.606028 -26.266220 13.039029 -29.339242 -12.969504 4.420587 -11.334801 -3.354434 -0.867173 -3.873533 2.373380 0.520800 0.141280 0.156760 0.039790 -3.725752 27.244639 8.961849 51.042682 19.301735 -9.032127 -14.298858 25.127679 -5.240967 1.968879 -1.235046 -0.234250 0.447380 0.275170 -0.104220 
